<svg width="1096" height="1096" viewBox="0 0 1096 1096" fill="none" xmlns="http://www.w3.org/2000/svg">
<rect width="1096" height="1096" fill="#E9FF70"/>
<path d="M428.828 640H468.828V357H428.828V640Z" fill="black"/>
<path d="M638.672 640L666.956 611.716L468.891 413.65L440.606 441.935L638.672 640Z" fill="black"/>
<path d="M548.828 480C608.288 480 657.646 436.754 667.168 380H626.308C617.427 414.505 586.105 440 548.828 440C504.645 440 468.828 404.183 468.828 360C468.828 315.817 504.645 280 548.828 280C586.105 280 617.427 305.495 626.308 340H667.168C657.646 283.246 608.288 240 548.828 240C482.554 240 428.828 293.726 428.828 360C428.828 426.274 482.554 480 548.828 480Z" fill="black"/>
<path d="M567.828 357C567.828 368.046 558.874 377 547.828 377C536.782 377 527.828 368.046 527.828 357C527.828 345.954 536.782 337 547.828 337C558.874 337 567.828 345.954 567.828 357Z" fill="black"/>
<path d="M409.663 813.376L408.031 800.896L448.255 764.8H464.671L409.663 813.376ZM400.351 832V764.8H412.831V832H400.351ZM449.407 832L422.431 797.344L430.783 789.088L464.959 832H449.407ZM483.786 832V760.96H495.69V832H483.786ZM539.095 832.96C534.167 832.96 529.783 831.84 525.943 829.6C522.167 827.296 519.159 824.16 516.919 820.192C514.743 816.224 513.655 811.68 513.655 806.56C513.655 801.504 514.775 796.992 517.015 793.024C519.255 789.056 522.327 785.952 526.231 783.712C530.199 781.472 534.711 780.352 539.767 780.352C542.775 780.352 545.527 780.736 548.023 781.504C550.583 782.272 552.791 783.36 554.647 784.768C556.567 786.112 558.103 787.616 559.255 789.28C560.407 790.88 561.111 792.576 561.367 794.368L558.583 794.08V781.408H570.391V832H558.487V819.136L561.079 819.232C560.759 820.832 559.959 822.464 558.679 824.128C557.463 825.728 555.831 827.2 553.783 828.544C551.799 829.824 549.559 830.88 547.063 831.712C544.567 832.544 541.911 832.96 539.095 832.96ZM542.263 822.496C545.527 822.496 548.407 821.824 550.903 820.48C553.463 819.136 555.447 817.28 556.855 814.912C558.263 812.48 558.967 809.696 558.967 806.56C558.967 803.552 558.263 800.864 556.855 798.496C555.447 796.128 553.463 794.272 550.903 792.928C548.407 791.52 545.527 790.816 542.263 790.816C538.935 790.816 536.023 791.52 533.527 792.928C531.031 794.272 529.079 796.128 527.671 798.496C526.327 800.864 525.655 803.552 525.655 806.56C525.655 809.696 526.327 812.48 527.671 814.912C529.079 817.28 531.031 819.136 533.527 820.48C536.023 821.824 538.935 822.496 542.263 822.496ZM594.509 832V781.408H606.125L606.413 798.496L604.013 796.192C604.845 793.248 606.253 790.592 608.237 788.224C610.285 785.792 612.621 783.872 615.245 782.464C617.869 781.056 620.589 780.352 623.405 780.352C625.005 780.352 626.573 780.512 628.109 780.832C629.645 781.152 630.861 781.568 631.757 782.08L628.589 794.848C627.565 794.208 626.317 793.728 624.845 793.408C623.437 793.024 621.997 792.832 620.525 792.832C618.477 792.832 616.589 793.216 614.861 793.984C613.133 794.688 611.629 795.68 610.349 796.96C609.133 798.176 608.173 799.584 607.469 801.184C606.765 802.72 606.413 804.384 606.413 806.176V832H594.509ZM671.389 832.96C665.693 832.96 660.637 831.84 656.221 829.6C651.805 827.296 648.317 824.16 645.757 820.192C643.261 816.224 642.013 811.712 642.013 806.656C642.013 801.6 643.261 797.088 645.757 793.12C648.317 789.152 651.805 786.048 656.221 783.808C660.637 781.504 665.693 780.352 671.389 780.352C677.085 780.352 682.141 781.504 686.557 783.808C690.973 786.048 694.429 789.152 696.925 793.12C699.485 797.088 700.765 801.6 700.765 806.656C700.765 811.712 699.485 816.224 696.925 820.192C694.429 824.16 690.973 827.296 686.557 829.6C682.141 831.84 677.085 832.96 671.389 832.96ZM671.389 822.496C674.653 822.496 677.597 821.792 680.221 820.384C682.909 818.976 684.989 817.088 686.461 814.72C687.997 812.352 688.765 809.664 688.765 806.656C688.765 803.584 687.997 800.864 686.461 798.496C684.989 796.064 682.909 794.176 680.221 792.832C677.597 791.488 674.653 790.816 671.389 790.816C668.189 790.816 665.245 791.52 662.557 792.928C659.869 794.272 657.757 796.128 656.221 798.496C654.685 800.864 653.949 803.584 654.013 806.656C653.949 809.664 654.685 812.352 656.221 814.72C657.757 817.088 659.869 818.976 662.557 820.384C665.245 821.792 668.189 822.496 671.389 822.496Z" fill="black"/>
</svg>
