<svg width="880" height="880" viewBox="0 0 880 880" fill="none" xmlns="http://www.w3.org/2000/svg">
<path d="M320.828 640H360.828V357H320.828V640Z" fill="black"/>
<path d="M530.672 640L558.956 611.716L360.891 413.65L332.606 441.935L530.672 640Z" fill="black"/>
<path d="M440.828 480C500.288 480 549.646 436.754 559.168 380H518.308C509.427 414.505 478.105 440 440.828 440C396.645 440 360.828 404.183 360.828 360C360.828 315.817 396.645 280 440.828 280C478.105 280 509.427 305.495 518.308 340H559.168C549.646 283.246 500.288 240 440.828 240C374.554 240 320.828 293.726 320.828 360C320.828 426.274 374.554 480 440.828 480Z" fill="black"/>
<path d="M459.828 357C459.828 368.046 450.874 377 439.828 377C428.782 377 419.828 368.046 419.828 357C419.828 345.954 428.782 337 439.828 337C450.874 337 459.828 345.954 459.828 357Z" fill="black"/>
</svg>
